HIERARCHY
ROOT Hips
{
	OFFSET -0.001795 -0.223333 0.028219
	CHANNELS 6 Xposition Yposition Zposition Zrotation Yrotation Xrotation 
	JOINT LeftUpLeg
	{
		OFFSET 0.069520 -0.091406 -0.006815
		CHANNELS 3 Zrotation Yrotation Xrotation
		JOINT LeftLeg
		{
			OFFSET 0.034277 -0.375199 -0.004496
			CHANNELS 3 Zrotation Yrotation Xrotation
			JOINT LeftFoot
			{
				OFFSET -0.013596 -0.397961 -0.043693
				CHANNELS 3 Zrotation Yrotation Xrotation
				JOINT LeftToe
				{
					OFFSET 0.026358 -0.055791 0.119288
					CHANNELS 3 Zrotation Yrotation Xrotation
					End Site
					{
						OFFSET 0.000000 0.000000 0.000000
					}
				}
			}
		}
	}
	JOINT RightUpLeg
	{
		OFFSET -0.067670 -0.090522 -0.004320
		CHANNELS 3 Zrotation Yrotation Xrotation
		JOINT RightLeg
		{
			OFFSET -0.038290 -0.382569 -0.008850
			CHANNELS 3 Zrotation Yrotation Xrotation
			JOINT RightFoot
			{
				OFFSET 0.015774 -0.398415 -0.042312
				CHANNELS 3 Zrotation Yrotation Xrotation
				JOINT RightToe
				{
					OFFSET -0.025372 -0.048144 0.123348
					CHANNELS 3 Zrotation Yrotation Xrotation
					End Site
					{
						OFFSET 0.000000 0.000000 0.000000
					}
				}
			}
		}
	}
	JOINT Spine
	{
		OFFSET -0.002533 0.108963 -0.026696
		CHANNELS 3 Zrotation Yrotation Xrotation
		JOINT Spine1
		{
			OFFSET 0.005487 0.135180 0.001092
			CHANNELS 3 Zrotation Yrotation Xrotation
			JOINT Spine2
			{
				OFFSET 0.001457 0.052922 0.025425
				CHANNELS 3 Zrotation Yrotation Xrotation
				JOINT Neck
				{
					OFFSET -0.002778 0.213870 -0.042857
					CHANNELS 3 Zrotation Yrotation Xrotation
					JOINT Head
					{
						OFFSET 0.005152 0.064970 0.051349
						CHANNELS 3 Zrotation Yrotation Xrotation
						End Site
						{
							OFFSET 0.000000 0.000000 0.000000
						}
					}
				}
				JOINT LeftShoulder
				{
					OFFSET 0.078845 0.121749 -0.034090
					CHANNELS 3 Zrotation Yrotation Xrotation
					JOINT LeftArm
					{
						OFFSET 0.090977 0.030469 -0.008868
						CHANNELS 3 Zrotation Yrotation Xrotation
						JOINT LeftForeArm
						{
							OFFSET 0.259612 -0.012772 -0.027456
							CHANNELS 3 Zrotation Yrotation Xrotation
							JOINT LeftHand
							{
								OFFSET 0.249234 0.008986 -0.001171
								CHANNELS 3 Zrotation Yrotation Xrotation
								End Site
								{
									OFFSET 0.000000 0.000000 0.000000
								}
							}
						}
					}
				}
				JOINT RightShoulder
				{
					OFFSET -0.081759 0.118833 -0.038615
					CHANNELS 3 Zrotation Yrotation Xrotation
					JOINT RightArm
					{
						OFFSET -0.096012 0.032551 -0.009143
						CHANNELS 3 Zrotation Yrotation Xrotation
						JOINT RightForeArm
						{
							OFFSET -0.253742 -0.013329 -0.021401
							CHANNELS 3 Zrotation Yrotation Xrotation
							JOINT RightHand
							{
								OFFSET -0.255298 0.007772 -0.005559
								CHANNELS 3 Zrotation Yrotation Xrotation
								End Site
								{
									OFFSET 0.000000 0.000000 0.000000
								}
							}
						}
					}
				}
			}
		}
	}
}
MOTION
Frames: 6
Frame Time: 0.050000
0.000000 0.960242 0.000000 0.072146 -4.126261 -5.031167 2.326989 0.847701 10.527974 -3.117733 0.437737 -7.568009 5.947528 14.287047 15.595718 0.000000 0.000000 0.000000 -3.985382 -0.328239 7.011100 4.266432 -0.424175 -3.177340 -4.092661 -13.146395 12.262650 0.000000 0.000000 0.000000 5.671037 -0.810474 9.951925 -6.303223 2.270562 -19.011538 -2.390808 7.029075 26.237125 10.189646 -3.087555 -28.995677 0.000000 0.000000 0.000000 -22.845071 -15.768456 6.323997 -45.741827 -6.508400 -4.704093 -5.405996 -23.377270 1.978339 0.000000 0.000000 0.000000 30.220213 2.521072 1.611624 51.690795 9.456949 -3.934181 6.134421 26.256409 2.714274 0.000000 0.000000 0.000000 
-0.000160 0.959030 0.000458 0.274134 -4.615602 -5.103099 1.941459 0.942521 11.088790 -2.645531 0.429788 -8.426117 6.370395 14.843624 15.178684 0.000000 0.000000 0.000000 -4.029978 -0.286761 6.517629 3.853370 -0.387929 -2.447251 -4.197042 -13.311809 11.911334 0.000000 0.000000 0.000000 5.946527 -0.842564 10.174609 -7.135228 2.522767 -18.814164 -2.599931 7.339688 25.535328 10.602723 -3.113439 -29.977456 0.000000 0.000000 0.000000 -22.004875 -16.058557 6.425780 -46.599190 -6.682492 -4.681151 -4.986942 -22.856862 1.849395 0.000000 0.000000 0.000000 30.274870 2.375126 1.496890 53.265803 8.322458 -4.396663 5.476934 27.610166 2.766622 0.000000 0.000000 0.000000 
-0.000188 0.958631 0.000639 0.282493 -4.483365 -4.850825 2.136663 0.870525 10.510075 -2.948033 0.429850 -7.433839 6.375190 14.843367 14.998550 0.000000 0.000000 0.000000 -4.006600 -0.283468 6.413787 3.566145 -0.370183 -2.850212 -3.620935 -12.455947 12.824183 0.000000 0.000000 0.000000 5.908161 -0.841924 10.117724 -7.095517 2.476329 -19.625541 -2.353334 7.069935 26.211145 10.033051 -2.863569 -30.069809 0.000000 0.000000 0.000000 -22.269996 -16.287637 6.678553 -46.048870 -6.818824 -4.669919 -5.232580 -22.426327 1.864500 0.000000 0.000000 0.000000 30.542176 2.582968 1.577541 52.034012 8.138413 -4.493310 6.690965 27.368022 2.986006 0.000000 0.000000 0.000000 
-0.000238 0.958911 0.000794 0.543636 -4.527780 -5.735882 1.733234 1.031326 11.851244 -2.660623 0.424035 -8.023543 6.473192 15.016309 15.143657 0.000000 0.000000 0.000000 -4.350067 -0.312266 7.372558 3.871431 -0.393736 -3.168088 -4.102216 -13.478001 13.692090 0.000000 0.000000 0.000000 5.969177 -0.906687 11.066902 -7.330569 2.571514 -19.317952 -2.725484 7.165868 26.131434 10.647123 -3.157144 -30.285632 0.000000 0.000000 0.000000 -22.411491 -17.299533 7.211699 -45.477509 -6.422889 -4.724929 -4.765412 -23.154482 1.822528 0.000000 0.000000 0.000000 31.136753 2.858915 1.815576 51.669569 7.928737 -4.599649 6.651549 27.926515 3.053205 0.000000 0.000000 0.000000 
-0.000260 0.959029 0.000874 0.491926 -4.284001 -5.867300 1.833106 1.018700 11.882912 -2.529277 0.409994 -7.706702 6.039885 14.367792 14.917129 0.000000 0.000000 0.000000 -4.207364 -0.338273 7.496792 3.651833 -0.382122 -3.307704 -3.994502 -13.293838 13.825274 0.000000 0.000000 0.000000 5.775501 -0.906612 11.260240 -6.820656 2.446425 -18.733481 -2.959128 6.866576 25.479430 10.399834 -3.159617 -29.453911 0.000000 0.000000 0.000000 -22.445390 -17.207201 7.166070 -45.608414 -6.639238 -4.606396 -5.110586 -23.696370 1.938807 0.000000 0.000000 0.000000 31.083827 3.068047 1.863362 51.511328 7.820355 -4.540342 6.792074 27.678634 3.023096 0.000000 0.000000 0.000000 
-0.000249 0.959390 0.000994 0.525703 -4.352123 -5.962140 1.647711 1.051360 12.025163 -2.286283 0.396442 -7.658761 5.938002 14.188134 14.699794 0.000000 0.000000 0.000000 -4.154416 -0.354393 7.729193 3.660671 -0.383489 -3.546322 -3.960399 -13.262343 13.935584 0.000000 0.000000 0.000000 5.791489 -0.917406 11.408901 -6.830850 2.438157 -19.023858 -2.961228 6.812139 25.734028 10.331731 -3.087179 -29.808986 0.000000 0.000000 0.000000 -22.366713 -17.532645 7.388459 -45.568986 -6.703399 -4.608850 -5.251059 -24.170784 2.011762 0.000000 0.000000 0.000000 31.056758 3.323372 2.011135 51.382333 7.955710 -4.495752 6.726792 27.047913 2.915273 0.000000 0.000000 0.000000 
